<svg xmlns="http://www.w3.org/2000/svg" xmlns:xlink="http://www.w3.org/1999/xlink" version="1.1" width="256" height="256" viewBox="0 0 256 256" xml:space="preserve">

<defs>
</defs>
<g style="stroke: none; stroke-width: 0; stroke-dasharray: none; stroke-linecap: butt; stroke-linejoin: miter; stroke-miterlimit: 10; fill: none; fill-rule: nonzero; opacity: 1;" transform="translate(1.4065934065934016 1.4065934065934016) scale(2.81 2.81)" >
	<path d="M 86.356 46.27 c 0.031 -0.065 0.059 -0.131 0.085 -0.199 c 0.042 -0.11 0.076 -0.222 0.104 -0.336 c 0.016 -0.062 0.034 -0.123 0.046 -0.186 c 0.034 -0.181 0.055 -0.364 0.055 -0.548 l 0 0 c 0 0 0 0 0 0 c 0 -0.184 -0.022 -0.367 -0.055 -0.548 c -0.012 -0.064 -0.03 -0.124 -0.046 -0.186 c -0.029 -0.114 -0.062 -0.226 -0.104 -0.336 c -0.026 -0.068 -0.055 -0.134 -0.086 -0.199 c -0.046 -0.099 -0.099 -0.194 -0.156 -0.288 c -0.039 -0.063 -0.077 -0.126 -0.12 -0.186 c -0.02 -0.027 -0.033 -0.057 -0.054 -0.084 L 74.316 27.93 c -1.009 -1.313 -2.894 -1.561 -4.207 -0.551 c -1.313 1.009 -1.561 2.893 -0.551 4.207 L 77.56 42 H 30.903 c -1.657 0 -3 1.343 -3 3 c 0 1.657 1.343 3 3 3 h 46.656 l -8.001 10.414 c -1.01 1.314 -0.763 3.197 0.551 4.207 c 0.545 0.419 1.188 0.621 1.826 0.621 c 0.9 0 1.79 -0.403 2.381 -1.172 l 11.71 -15.242 c 0.021 -0.027 0.035 -0.057 0.055 -0.085 c 0.043 -0.06 0.08 -0.122 0.119 -0.184 C 86.257 46.464 86.31 46.369 86.356 46.27 z" style="stroke: none; stroke-width: 1; stroke-dasharray: none; stroke-linecap: butt; stroke-linejoin: miter; stroke-miterlimit: 10; fill: rgb(0,0,0); fill-rule: nonzero; opacity: 1;" transform=" matrix(1 0 0 1 0 0) " stroke-linecap="round" />
	<path d="M 60.442 90 H 9.353 c -1.657 0 -3 -1.343 -3 -3 V 3 c 0 -1.657 1.343 -3 3 -3 h 51.089 c 1.657 0 3 1.343 3 3 v 30.054 c 0 1.657 -1.343 3 -3 3 s -3 -1.343 -3 -3 V 6 H 12.353 v 78 h 45.089 V 55.61 c 0 -1.657 1.343 -3 3 -3 s 3 1.343 3 3 V 87 C 63.442 88.657 62.1 90 60.442 90 z" style="stroke: none; stroke-width: 1; stroke-dasharray: none; stroke-linecap: butt; stroke-linejoin: miter; stroke-miterlimit: 10; fill: rgb(0,0,0); fill-rule: nonzero; opacity: 1;" transform=" matrix(1 0 0 1 0 0) " stroke-linecap="round" />
</g>
</svg>