<?xml version="1.0" ?><!DOCTYPE svg  PUBLIC '-//W3C//DTD SVG 1.1//EN'  'http://www.w3.org/Graphics/SVG/1.1/DTD/svg11.dtd'><svg id="Capa_1" style="enable-background:new 0 0 60 60;" version="1.1" viewBox="0 0 60 60" xml:space="preserve" xmlns="http://www.w3.org/2000/svg" xmlns:xlink="http://www.w3.org/1999/xlink"><path d="M54.07,1H15.93C12.66,1,10,3.66,10,6.93V15H5.93C2.66,15,0,17.66,0,20.929V42.07C0,45.34,2.66,48,5.93,48H12v10  c0,0.413,0.254,0.784,0.64,0.933C12.757,58.978,12.879,59,13,59c0.276,0,0.547-0.115,0.74-0.327L23.442,48H44.07  c3.27,0,5.93-2.66,5.93-5.929V34h4.07c3.27,0,5.93-2.66,5.93-5.93V6.93C60,3.66,57.34,1,54.07,1z M48,42.071  C48,44.237,46.237,46,44.07,46H23c-0.282,0-0.551,0.119-0.74,0.327L14,55.414V47c0-0.552-0.447-1-1-1H5.93  C3.763,46,2,44.237,2,42.07V20.929C2,18.763,3.763,17,5.93,17H11h33.07c2.167,0,3.93,1.763,3.93,3.93V33V42.071z M58,28.07  c0,2.167-1.763,3.93-3.93,3.93H50V20.93c0-3.27-2.66-5.93-5.93-5.93H12V6.93C12,4.763,13.763,3,15.93,3H54.07  C56.237,3,58,4.763,58,6.93V28.07z"/><g/><g/><g/><g/><g/><g/><g/><g/><g/><g/><g/><g/><g/><g/><g/></svg>